<svg width="24" height="24" viewBox="0 0 24 24" fill="none" xmlns="http://www.w3.org/2000/svg">
<path d="M14.8126 15.3388V17.8373H1.60307C1.41586 17.8373 1.23631 17.7629 1.10393 17.6305C0.971556 17.4981 0.897186 17.3186 0.897186 17.1314V15.3384H14.813L14.8126 15.3388ZM23.4854 12.0984V17.1314C23.4854 17.3186 23.4111 17.4981 23.2787 17.6305C23.1463 17.7629 22.9668 17.8373 22.7795 17.8373H14.8126V7.73362C14.8126 7.64001 14.8498 7.55024 14.916 7.48405C14.9822 7.41786 15.0719 7.38068 15.1655 7.38068H20.6291C21.0078 7.38068 21.3512 7.59244 21.5206 7.92915L23.3817 11.6513C23.4501 11.7924 23.4854 11.9431 23.4854 12.0984V12.0984Z" fill="#6AC1FB"/>
<path d="M21.6974 11.821H16.3341C16.2717 11.821 16.2118 11.7962 16.1676 11.7521C16.1235 11.7079 16.0987 11.6481 16.0987 11.5856V9.01868C16.0987 8.88879 16.2039 8.78326 16.3341 8.78326H20.4134C20.5023 8.78326 20.5839 8.83373 20.6238 8.9135L21.9074 11.4804C21.9253 11.5163 21.9338 11.5562 21.932 11.5962C21.9302 11.6363 21.9182 11.6752 21.8971 11.7093C21.876 11.7434 21.8466 11.7716 21.8116 11.7912C21.7766 11.8107 21.7371 11.821 21.697 11.821H21.6974Z" fill="#E9EDF4"/>
<path d="M18.3113 13.0796C18.3113 13.2582 18.1652 13.4043 17.9866 13.4043H16.4523C16.3666 13.4043 16.2843 13.3702 16.2236 13.3096C16.163 13.2489 16.1289 13.1666 16.1289 13.0809C16.1289 12.9951 16.163 12.9128 16.2236 12.8521C16.2843 12.7915 16.3666 12.7574 16.4523 12.7574H17.9866C18.1652 12.7574 18.3113 12.9007 18.3113 13.0796Z" fill="#8CC2FE"/>
<path d="M23.4854 14.2991V16.2282H23.0086C22.8819 16.2282 22.7565 16.2033 22.6395 16.1548C22.5225 16.1063 22.4162 16.0353 22.3266 15.9457C22.2371 15.8561 22.1661 15.7498 22.1176 15.6328C22.0692 15.5157 22.0443 15.3903 22.0443 15.2637V15.2633C22.0443 15.0076 22.1459 14.7623 22.3268 14.5815C22.5076 14.4007 22.7528 14.2991 23.0086 14.2991H23.4854V14.2991Z" fill="#E9EDF4"/>
<path d="M7.21763 18.0088C7.21768 18.3026 7.15981 18.5934 7.04735 18.8648C6.93488 19.1362 6.77002 19.3827 6.56219 19.5903C6.35437 19.7979 6.10765 19.9625 5.83616 20.0746C5.56467 20.1868 5.27373 20.2444 4.97998 20.244C4.67201 20.244 4.36736 20.1803 4.08516 20.057C3.80296 19.9336 3.5493 19.7533 3.34011 19.5273C3.13092 19.3012 2.97071 19.0344 2.86954 18.7435C2.76838 18.4526 2.72843 18.144 2.75222 17.8369C2.79568 17.2757 3.04925 16.7515 3.46229 16.3691C3.87534 15.9867 4.41744 15.7742 4.98034 15.774C5.27402 15.7738 5.56487 15.8314 5.83627 15.9436C6.10767 16.0558 6.35432 16.2203 6.56211 16.4279C6.76991 16.6354 6.93478 16.8818 7.04732 17.1531C7.15985 17.4244 7.21785 17.7151 7.21798 18.0088H7.21763Z" fill="#342C37"/>
<path d="M4.98105 19.0214C5.54009 19.0214 5.99328 18.5682 5.99328 18.0092C5.99328 17.4501 5.54009 16.9969 4.98105 16.9969C4.422 16.9969 3.96881 17.4501 3.96881 18.0092C3.96881 18.5682 4.422 19.0214 4.98105 19.0214Z" fill="#E9EDF4"/>
<path d="M21.3858 18.0088C21.3858 18.3026 21.328 18.5935 21.2155 18.8648C21.103 19.1362 20.9382 19.3827 20.7303 19.5903C20.5225 19.7979 20.2758 19.9625 20.0043 20.0747C19.7328 20.1868 19.4419 20.2444 19.1481 20.244C18.8401 20.2441 18.5354 20.1804 18.2532 20.0571C17.9709 19.9338 17.7172 19.7535 17.508 19.5274C17.2988 19.3014 17.1385 19.0346 17.0374 18.7436C16.9362 18.4527 16.8962 18.144 16.92 17.837C16.9636 17.2599 17.2292 16.7222 17.661 16.337C18.0929 15.9517 18.6573 15.7489 19.2355 15.7711C19.8138 15.7934 20.3609 16.039 20.7619 16.4563C21.1628 16.8736 21.3863 17.4301 21.3854 18.0088H21.3858Z" fill="#342C37"/>
<path d="M19.1492 19.0214C19.7082 19.0214 20.1614 18.5682 20.1614 18.0092C20.1614 17.4501 19.7082 16.9969 19.1492 16.9969C18.5901 16.9969 18.1369 17.4501 18.1369 18.0092C18.1369 18.5682 18.5901 19.0214 19.1492 19.0214Z" fill="#E9EDF4"/>
<path d="M14.8122 14.5691V15.3385H0.899293C0.683999 15.3385 0.514587 15.1655 0.514587 14.9538C0.514587 14.742 0.683999 14.5691 0.899293 14.5691H14.8122V14.5691ZM6.79553 10.8088C6.54509 10.8085 6.30499 10.709 6.12787 10.5319C5.95075 10.3548 5.85108 10.1148 5.8507 9.86435V9.30776C5.8507 9.26095 5.8693 9.21607 5.90239 9.18297C5.93549 9.14988 5.98037 9.13129 6.02718 9.13129C6.07398 9.13129 6.11886 9.14988 6.15196 9.18297C6.18505 9.21607 6.20365 9.26095 6.20365 9.30776V9.86435C6.20365 10.1905 6.46906 10.4559 6.79553 10.4559C7.12129 10.4559 7.38671 10.1905 7.38671 9.86435V4.33376C7.38671 4.28696 7.4053 4.24207 7.43839 4.20897C7.47149 4.17588 7.51637 4.15729 7.56318 4.15729C7.60998 4.15729 7.65486 4.17588 7.68796 4.20897C7.72105 4.24207 7.73965 4.28696 7.73965 4.33376V9.86435C7.73965 10.3849 7.31612 10.8088 6.79553 10.8088Z" fill="#E9EDF4"/>
<path d="M7.9154 8.65729V9.86435C7.9154 10.1614 7.79764 10.4463 7.58792 10.6567C7.3782 10.8671 7.09363 10.9858 6.79658 10.9867C6.1754 10.9867 5.67422 10.482 5.67422 9.86435V9.30671C5.67422 9.11259 5.83305 8.95376 6.02717 8.95376C6.22128 8.95376 6.38011 9.11259 6.38011 9.30671V9.86435C6.38011 10.0938 6.56717 10.2808 6.79658 10.2808C7.02246 10.2808 7.20952 10.0938 7.20952 9.86435V8.65729C7.20952 8.46318 7.36834 8.30435 7.56246 8.30435C7.75658 8.30435 7.9154 8.46318 7.9154 8.65729V8.65729ZM11.5253 6.19306L10.1516 6.92471L7.42234 5.016C7.27179 4.91069 7.16912 4.74999 7.13684 4.56912C7.10456 4.38825 7.14529 4.20195 7.25011 4.05106C7.31438 3.95924 7.4 3.88441 7.4996 3.83301C7.5992 3.78161 7.7098 3.75518 7.82187 3.756C7.95705 3.756 8.0954 3.79588 8.21822 3.87882L11.5253 6.19306Z" fill="#342C37"/>
<path d="M14.8122 8.19494V14.5691H12.9311V9.18671L9.23153 6.60071C9.02752 6.4581 8.88849 6.24032 8.84501 5.99524C8.80152 5.75016 8.85715 5.49785 8.99964 5.29376L9.00141 5.29129C9.07199 5.19015 9.16182 5.10391 9.26575 5.0375C9.36968 4.97109 9.48568 4.9258 9.60711 4.90423C9.72855 4.88267 9.85305 4.88524 9.97349 4.91181C10.0939 4.93837 10.208 4.98841 10.3091 5.05906L14.7942 8.19494H14.8119H14.8122Z" fill="#FFA500"/>
</svg>
