<svg width="24" height="24" viewBox="0 0 24 24" fill="none" xmlns="http://www.w3.org/2000/svg">
    <path d="M11.64 16a4 4 0 1 1 0-8 4 4 0 0 1 0 8zm0-6a2 2 0 1 0 0 4 2 2 0 0 0 0-4z" fill="#6563FF"/>
    <path d="M19.903 12.664a1.001 1.001 0 0 1 0-1.328l1.278-1.44a1 1 0 0 0 .118-1.164l-2-3.464a1.004 1.004 0 0 0-1.066-.48l-1.887.386a1 1 0 0 1-1.15-.663l-.608-1.827A1 1 0 0 0 13.639 2h-4a1 1 0 0 0-.949.684L8.081 4.51a1.003 1.003 0 0 1-1.15.663l-1.886-.386a1.007 1.007 0 0 0-1.067.48l-2 3.464a1 1 0 0 0 .119 1.164l1.277 1.44a1.001 1.001 0 0 1 0 1.328l-1.277 1.44a1 1 0 0 0-.119 1.164l2 3.464a.999.999 0 0 0 1.067.48l1.887-.386a.998.998 0 0 1 1.149.663l.61 1.827a1 1 0 0 0 .948.684h4a1 1 0 0 0 .949-.684l.609-1.827a1.003 1.003 0 0 1 1.149-.664l1.886.386a.996.996 0 0 0 1.067-.48l2-3.463a1.001 1.001 0 0 0-.118-1.164l-1.278-1.44zM11.64 16a4 4 0 1 1 0-8 4 4 0 0 1 0 8z" fill="#B2B1FF"/>
</svg>
