<svg width="24" height="24" viewBox="0 0 24 24" fill="none" xmlns="http://www.w3.org/2000/svg">
    <path d="M11.813 22.837a.77.77 0 0 0 .412 0c1.5-.45 4.05-1.424 6.225-3.825 4.35-4.8 3.788-11.25 3.488-13.274-.038-.338-.3-.563-.6-.638-1.163-.187-2.55-.562-4.05-1.125a19.333 19.333 0 0 1-4.8-2.7.79.79 0 0 0-.9 0 22.06 22.06 0 0 1-4.8 2.7c-1.5.6-2.888.938-4.05 1.125-.3.038-.563.3-.6.638-.3 2.025-.863 8.474 3.487 13.274 2.138 2.4 4.688 3.413 6.188 3.825z" fill="#347A2A"/>
    <path d="M18.45 19.012a13.179 13.179 0 0 1-6.225 3.825c-.075.038-.15.038-.225.038V1.125c.15 0 .3.038.45.15a22.06 22.06 0 0 0 4.8 2.7c1.5.6 2.887.937 4.05 1.125.3.038.563.3.6.638.338 1.987.9 8.475-3.45 13.274z" fill="#94E489"/>
    <path d="M12 22.125c-1.613-.45-3.938-1.462-5.888-3.637C1.987 13.95 2.55 7.65 2.813 5.85c1.425-.262 2.85-.637 4.2-1.2 1.8-.675 3.45-1.613 4.988-2.775a20.154 20.154 0 0 0 4.95 2.775c1.35.525 2.775.938 4.2 1.162.263 1.838.863 8.1-3.3 12.675-1.913 2.176-4.238 3.188-5.85 3.638z" fill="#45A338"/>
    <path d="M12.225 20.212a.914.914 0 0 1-.45 0c-1.388-.487-3.075-1.35-4.537-2.962-2.85-3.113-3.188-7.238-3.075-9.675 0-.338.262-.638.6-.713a19.322 19.322 0 0 0 2.85-.9 22.857 22.857 0 0 0 4.05-2.062c.224-.15.524-.15.787 0 1.275.825 2.625 1.5 4.05 2.062.938.375 1.875.675 2.85.9.337.075.563.375.6.713.113 2.475-.225 6.562-3.075 9.675a11.982 11.982 0 0 1-4.65 2.962z" fill="#EDF1ED"/>
    <path d="M16.95 17.25c-1.462 1.613-3.188 2.475-4.537 2.962a.932.932 0 0 1-.3.038c1.2-.525 2.512-1.35 3.675-2.625 2.85-3.113 3.187-7.2 3.075-9.675 0-.338-.263-.638-.6-.713-.976-.225-1.913-.562-2.85-.9a22.857 22.857 0 0 1-4.05-2.062c-.038-.038-.075-.038-.15-.075.15-.113.337-.188.487-.3.225-.15.525-.15.788 0 1.274.825 2.625 1.5 4.05 2.062.937.375 1.875.675 2.85.9.337.075.562.375.6.713.15 2.437-.188 6.525-3.038 9.675z" fill="#C1DBC1"/>
    <path d="m7.35 12.188.488-.488a.752.752 0 0 1 1.125 0l1.275 1.313c.3.337.825.337 1.125 0l3.675-3.75a.752.752 0 0 1 1.125 0l.487.487c.3.338.3.825 0 1.162l-5.287 5.363a.752.752 0 0 1-1.125 0L7.35 13.35c-.3-.338-.3-.862 0-1.162z" fill="#C1DBC1"/>
    <path d="m8.1 11.813.488-.488a.752.752 0 0 1 1.125 0l1.275 1.313c.3.337.825.337 1.125 0l3.675-3.75a.752.752 0 0 1 1.125 0l.487.487c.3.338.3.825 0 1.162L12.113 15.9a.752.752 0 0 1-1.125 0L8.1 12.975c-.3-.338-.3-.862 0-1.162z" fill="#45A338"/>
    <path d="m17.4 10.5-.6.6c.037-.188.075-.412.075-.6 0-.713-.337-1.388-.9-1.8.3-.15.675-.113.938.15l.45.487A.827.827 0 0 1 17.4 10.5z" fill="#94E489"/>
    <path d="M8.625 12.75c0 .3.037.6.113.863l-.638-.638c-.3-.3-.3-.825 0-1.162l.45-.488a.763.763 0 0 1 .563-.225c-.3.45-.488 1.013-.488 1.65z" fill="#347A2A"/>
</svg>
